<?xml version="1.0" encoding="utf-8"?>
<!-- Generator: Adobe Illustrator 25.2.0, SVG Export Plug-In . SVG Version: 6.00 Build 0)  -->
<svg version="1.1" id="Layer_1" xmlns="http://www.w3.org/2000/svg" xmlns:xlink="http://www.w3.org/1999/xlink" x="0px" y="0px"
	 viewBox="0 0 86.2 64.6" style="enable-background:new 0 0 86.2 64.6;" xml:space="preserve">
<style type="text/css">
	.st0{fill:none;stroke:#F9304F;stroke-width:1.579;stroke-linecap:round;stroke-linejoin:round;stroke-miterlimit:10;}
</style>
<path class="st0" d="M17.7,29.4v22.1c0,0.5,0.3,0.9,0.8,1.3l16.3,8.8c4.9,2.7,10.7,2.8,15.8,0.6l22.6-9.9c0.5-0.2,0.8-0.8,0.8-1.3
	V28.8"/>
<path class="st0" d="M44.7,41.1c-2.1,0-4.1-0.5-5.8-1.4L6.5,23.2c-0.9-0.5-1.6-1.6-1.6-2.7c0-1.1,0.6-2.2,1.6-2.7L39.9,2.1
	c3.6-1.7,7.7-1.7,11.4,0.2l32.4,16.1c1.1,0.5,1.7,1.6,1.7,2.7c0,1.1-0.6,2.2-1.7,2.7L50.4,39.8C48.5,40.6,46.6,41.1,44.7,41.1z"/>
<path class="st0" d="M4.4,23.4v20.7"/>
<path class="st0" d="M45,20.9L4.4,23.4"/>
<path class="st0" d="M4.4,51.3c2,0,3.6-1.6,3.6-3.6c0-2-1.6-3.6-3.6-3.6c-2,0-3.6,1.6-3.6,3.6C0.8,49.7,2.4,51.3,4.4,51.3z"/>
<path class="st0" d="M1.6,60.5h5.7l-2.8-8.8L1.6,60.5z"/>
<path class="st0" d="M17.7,47.1c0,0.5,0.3,0.9,0.8,1.3l16.3,8.8c4.9,2.7,10.7,2.8,15.8,0.6l22.6-9.9c0.5-0.2,0.8-0.8,0.8-1.3"/>
</svg>
